<mxfile host="Electron" modified="2025-07-26T13:23:50.070Z" agent="Mozilla/5.0 (Windows NT 10.0; Win64; x64) AppleWebKit/537.36 (KHTML, like Gecko) draw.io/22.0.2 Chrome/114.0.5735.289 Electron/25.8.4 Safari/537.36" etag="LR1H2a2_jbD828SNMq5O" version="22.0.2" type="device">
  <diagram name="第 1 页" id="zXatni1pzqpMf48aNfHY">
    <mxGraphModel dx="1034" dy="652" grid="1" gridSize="10" guides="1" tooltips="1" connect="1" arrows="1" fold="1" page="1" pageScale="1" pageWidth="1654" pageHeight="1169" background="none" math="0" shadow="0">
      <root>
        <mxCell id="0" />
        <mxCell id="1" parent="0" />
        <mxCell id="TTheows_XsKQvSf3Ix66-2" value="" style="edgeStyle=orthogonalEdgeStyle;rounded=0;orthogonalLoop=1;jettySize=auto;html=1;" edge="1" parent="1" source="bR23BMnwEC_2DaW9xukJ-1" target="TTheows_XsKQvSf3Ix66-1">
          <mxGeometry relative="1" as="geometry" />
        </mxCell>
        <mxCell id="bR23BMnwEC_2DaW9xukJ-1" value="OtherWidget" style="rounded=0;whiteSpace=wrap;html=1;" parent="1" vertex="1">
          <mxGeometry x="430" y="20" width="120" height="60" as="geometry" />
        </mxCell>
        <mxCell id="TTheows_XsKQvSf3Ix66-9" value="" style="edgeStyle=orthogonalEdgeStyle;rounded=0;orthogonalLoop=1;jettySize=auto;html=1;" edge="1" parent="1" source="TTheows_XsKQvSf3Ix66-1" target="TTheows_XsKQvSf3Ix66-8">
          <mxGeometry relative="1" as="geometry">
            <Array as="points">
              <mxPoint x="490" y="240" />
              <mxPoint x="80" y="240" />
            </Array>
          </mxGeometry>
        </mxCell>
        <mxCell id="TTheows_XsKQvSf3Ix66-12" value="" style="edgeStyle=orthogonalEdgeStyle;rounded=0;orthogonalLoop=1;jettySize=auto;html=1;" edge="1" parent="1" source="TTheows_XsKQvSf3Ix66-1" target="TTheows_XsKQvSf3Ix66-11">
          <mxGeometry relative="1" as="geometry">
            <Array as="points">
              <mxPoint x="490" y="320" />
              <mxPoint x="260" y="320" />
            </Array>
          </mxGeometry>
        </mxCell>
        <mxCell id="TTheows_XsKQvSf3Ix66-47" style="edgeStyle=orthogonalEdgeStyle;rounded=0;orthogonalLoop=1;jettySize=auto;html=1;entryX=0.5;entryY=0;entryDx=0;entryDy=0;" edge="1" parent="1" source="TTheows_XsKQvSf3Ix66-1" target="TTheows_XsKQvSf3Ix66-32">
          <mxGeometry relative="1" as="geometry">
            <Array as="points">
              <mxPoint x="490" y="320" />
              <mxPoint x="670" y="320" />
            </Array>
          </mxGeometry>
        </mxCell>
        <mxCell id="TTheows_XsKQvSf3Ix66-48" style="edgeStyle=orthogonalEdgeStyle;rounded=0;orthogonalLoop=1;jettySize=auto;html=1;entryX=0.5;entryY=0;entryDx=0;entryDy=0;" edge="1" parent="1" source="TTheows_XsKQvSf3Ix66-1" target="TTheows_XsKQvSf3Ix66-34">
          <mxGeometry relative="1" as="geometry">
            <Array as="points">
              <mxPoint x="490" y="240" />
              <mxPoint x="920" y="240" />
            </Array>
          </mxGeometry>
        </mxCell>
        <mxCell id="TTheows_XsKQvSf3Ix66-1" value="Mode" style="whiteSpace=wrap;html=1;rounded=0;" vertex="1" parent="1">
          <mxGeometry x="430" y="160" width="120" height="60" as="geometry" />
        </mxCell>
        <mxCell id="TTheows_XsKQvSf3Ix66-4" value="showTip()" style="text;html=1;strokeColor=none;fillColor=none;align=center;verticalAlign=middle;whiteSpace=wrap;rounded=0;" vertex="1" parent="1">
          <mxGeometry x="490" y="100" width="60" height="30" as="geometry" />
        </mxCell>
        <mxCell id="TTheows_XsKQvSf3Ix66-6" value="" style="endArrow=none;dashed=1;html=1;dashPattern=1 3;strokeWidth=2;rounded=0;" edge="1" parent="1">
          <mxGeometry width="50" height="50" relative="1" as="geometry">
            <mxPoint x="40" y="130" as="sourcePoint" />
            <mxPoint x="1000" y="130" as="targetPoint" />
          </mxGeometry>
        </mxCell>
        <mxCell id="TTheows_XsKQvSf3Ix66-26" style="edgeStyle=orthogonalEdgeStyle;rounded=0;orthogonalLoop=1;jettySize=auto;html=1;" edge="1" parent="1" source="TTheows_XsKQvSf3Ix66-8" target="TTheows_XsKQvSf3Ix66-20">
          <mxGeometry relative="1" as="geometry" />
        </mxCell>
        <mxCell id="TTheows_XsKQvSf3Ix66-8" value="Pos&lt;br&gt;" style="whiteSpace=wrap;html=1;rounded=0;" vertex="1" parent="1">
          <mxGeometry x="20" y="360" width="120" height="60" as="geometry" />
        </mxCell>
        <mxCell id="TTheows_XsKQvSf3Ix66-10" value="TrackMouse" style="text;html=1;strokeColor=none;fillColor=none;align=center;verticalAlign=middle;whiteSpace=wrap;rounded=0;" vertex="1" parent="1">
          <mxGeometry x="190" y="210" width="80" height="30" as="geometry" />
        </mxCell>
        <mxCell id="TTheows_XsKQvSf3Ix66-27" style="edgeStyle=orthogonalEdgeStyle;rounded=0;orthogonalLoop=1;jettySize=auto;html=1;entryX=1;entryY=0.5;entryDx=0;entryDy=0;" edge="1" parent="1" source="TTheows_XsKQvSf3Ix66-11" target="TTheows_XsKQvSf3Ix66-20">
          <mxGeometry relative="1" as="geometry">
            <Array as="points">
              <mxPoint x="260" y="840" />
            </Array>
          </mxGeometry>
        </mxCell>
        <mxCell id="TTheows_XsKQvSf3Ix66-11" value="Pos" style="whiteSpace=wrap;html=1;rounded=0;" vertex="1" parent="1">
          <mxGeometry x="200" y="360" width="120" height="60" as="geometry" />
        </mxCell>
        <mxCell id="TTheows_XsKQvSf3Ix66-13" value="TrackTarget" style="text;html=1;strokeColor=none;fillColor=none;align=center;verticalAlign=middle;whiteSpace=wrap;rounded=0;" vertex="1" parent="1">
          <mxGeometry x="340" y="290" width="80" height="30" as="geometry" />
        </mxCell>
        <mxCell id="TTheows_XsKQvSf3Ix66-20" value="QPoint()" style="whiteSpace=wrap;html=1;rounded=0;" vertex="1" parent="1">
          <mxGeometry x="20" y="810" width="120" height="60" as="geometry" />
        </mxCell>
        <mxCell id="TTheows_XsKQvSf3Ix66-22" value="" style="endArrow=none;dashed=1;html=1;dashPattern=1 3;strokeWidth=2;rounded=0;" edge="1" parent="1">
          <mxGeometry width="50" height="50" relative="1" as="geometry">
            <mxPoint x="40" y="750" as="sourcePoint" />
            <mxPoint x="1000" y="750" as="targetPoint" />
          </mxGeometry>
        </mxCell>
        <mxCell id="TTheows_XsKQvSf3Ix66-23" value="TopLeft;&lt;br&gt;TopRight;&lt;br&gt;BottomLeft;&lt;br&gt;BottomRight;" style="text;html=1;strokeColor=none;fillColor=none;align=center;verticalAlign=middle;whiteSpace=wrap;rounded=0;" vertex="1" parent="1">
          <mxGeometry x="80" y="520" width="90" height="80" as="geometry" />
        </mxCell>
        <mxCell id="TTheows_XsKQvSf3Ix66-28" value="Top;&lt;br&gt;Left;&lt;br&gt;Bottom:&lt;br&gt;Right" style="text;html=1;strokeColor=none;fillColor=none;align=center;verticalAlign=middle;whiteSpace=wrap;rounded=0;" vertex="1" parent="1">
          <mxGeometry x="250" y="450" width="90" height="80" as="geometry" />
        </mxCell>
        <mxCell id="TTheows_XsKQvSf3Ix66-30" value="AlignTarget" style="text;html=1;strokeColor=none;fillColor=none;align=center;verticalAlign=middle;whiteSpace=wrap;rounded=0;" vertex="1" parent="1">
          <mxGeometry x="550" y="290" width="70" height="30" as="geometry" />
        </mxCell>
        <mxCell id="TTheows_XsKQvSf3Ix66-37" style="edgeStyle=orthogonalEdgeStyle;rounded=0;orthogonalLoop=1;jettySize=auto;html=1;entryX=1;entryY=0.5;entryDx=0;entryDy=0;" edge="1" parent="1" source="TTheows_XsKQvSf3Ix66-32" target="TTheows_XsKQvSf3Ix66-20">
          <mxGeometry relative="1" as="geometry">
            <Array as="points">
              <mxPoint x="670" y="840" />
            </Array>
          </mxGeometry>
        </mxCell>
        <mxCell id="TTheows_XsKQvSf3Ix66-32" value="Pos" style="whiteSpace=wrap;html=1;rounded=0;" vertex="1" parent="1">
          <mxGeometry x="610" y="360" width="120" height="60" as="geometry" />
        </mxCell>
        <mxCell id="TTheows_XsKQvSf3Ix66-39" style="edgeStyle=orthogonalEdgeStyle;rounded=0;orthogonalLoop=1;jettySize=auto;html=1;entryX=1;entryY=0.5;entryDx=0;entryDy=0;" edge="1" parent="1" source="TTheows_XsKQvSf3Ix66-34" target="TTheows_XsKQvSf3Ix66-20">
          <mxGeometry relative="1" as="geometry">
            <Array as="points">
              <mxPoint x="920" y="840" />
            </Array>
          </mxGeometry>
        </mxCell>
        <mxCell id="TTheows_XsKQvSf3Ix66-34" value="Pos" style="whiteSpace=wrap;html=1;rounded=0;" vertex="1" parent="1">
          <mxGeometry x="860" y="360" width="120" height="60" as="geometry" />
        </mxCell>
        <mxCell id="TTheows_XsKQvSf3Ix66-36" value="AlignTargetForEnterPos" style="text;html=1;strokeColor=none;fillColor=none;align=center;verticalAlign=middle;whiteSpace=wrap;rounded=0;" vertex="1" parent="1">
          <mxGeometry x="655" y="210" width="140" height="30" as="geometry" />
        </mxCell>
        <mxCell id="TTheows_XsKQvSf3Ix66-38" value="Top;&lt;br&gt;Left;&lt;br&gt;Bottom:&lt;br&gt;Right" style="text;html=1;strokeColor=none;fillColor=none;align=center;verticalAlign=middle;whiteSpace=wrap;rounded=0;" vertex="1" parent="1">
          <mxGeometry x="680" y="450" width="90" height="80" as="geometry" />
        </mxCell>
        <mxCell id="TTheows_XsKQvSf3Ix66-41" value="Top;&lt;br&gt;Left;&lt;br&gt;Bottom:&lt;br&gt;Right" style="text;html=1;strokeColor=none;fillColor=none;align=center;verticalAlign=middle;whiteSpace=wrap;rounded=0;" vertex="1" parent="1">
          <mxGeometry x="910" y="460" width="90" height="80" as="geometry" />
        </mxCell>
        <mxCell id="TTheows_XsKQvSf3Ix66-42" value="TopLeft;&lt;br&gt;TopRight;&lt;br&gt;BottomLeft;&lt;br&gt;BottomRight;" style="text;html=1;strokeColor=none;fillColor=none;align=center;verticalAlign=middle;whiteSpace=wrap;rounded=0;" vertex="1" parent="1">
          <mxGeometry x="920" y="560" width="90" height="80" as="geometry" />
        </mxCell>
        <mxCell id="TTheows_XsKQvSf3Ix66-44" value="Top;&lt;br&gt;Left;&lt;br&gt;Bottom:&lt;br&gt;Right" style="text;html=1;strokeColor=none;fillColor=none;align=center;verticalAlign=middle;whiteSpace=wrap;rounded=0;" vertex="1" parent="1">
          <mxGeometry x="80" y="450" width="90" height="80" as="geometry" />
        </mxCell>
      </root>
    </mxGraphModel>
  </diagram>
</mxfile>
